<mxfile host="Electron" modified="2023-11-21T13:55:09.917Z" agent="Mozilla/5.0 (Windows NT 10.0; Win64; x64) AppleWebKit/537.36 (KHTML, like Gecko) draw.io/21.5.0 Chrome/112.0.5615.204 Electron/24.5.1 Safari/537.36" etag="GpVmVmS7Sb2-ACzbvi0A" version="21.5.0" type="device">
  <diagram name="第 1 页" id="cLt7MoAZLG9p_WV4wRqP">
    <mxGraphModel dx="1418" dy="828" grid="1" gridSize="10" guides="1" tooltips="1" connect="1" arrows="1" fold="1" page="1" pageScale="1" pageWidth="2339" pageHeight="3300" math="0" shadow="0">
      <root>
        <mxCell id="0" />
        <mxCell id="1" parent="0" />
        <mxCell id="MHvYwJk31liGYIqGSOy9-57" value="" style="rounded=0;whiteSpace=wrap;html=1;fillColor=#58c3f9;fontColor=#000000;strokeColor=#006EAF;fontSize=14;verticalAlign=middle;fontFamily=Comic Sans MS;" parent="1" vertex="1">
          <mxGeometry x="1540" y="270" width="280" height="290" as="geometry" />
        </mxCell>
        <mxCell id="AflWwfmr-6gilCycjoMJ-1" value="" style="swimlane;startSize=0;fillColor=#f5f5f5;strokeColor=#666666;fontColor=#000000;fontSize=14;verticalAlign=middle;fontFamily=Comic Sans MS;labelBackgroundColor=#f2eeee;" parent="1" vertex="1">
          <mxGeometry x="45" y="90" width="2265" height="1200" as="geometry" />
        </mxCell>
        <mxCell id="MHvYwJk31liGYIqGSOy9-62" value="" style="rounded=0;whiteSpace=wrap;html=1;fillColor=#c88b6f;fontColor=#000000;strokeColor=#6D1F00;fontSize=14;verticalAlign=middle;fontFamily=Comic Sans MS;" parent="AflWwfmr-6gilCycjoMJ-1" vertex="1">
          <mxGeometry x="2045" y="181" width="205" height="289" as="geometry" />
        </mxCell>
        <mxCell id="MHvYwJk31liGYIqGSOy9-59" value="" style="rounded=0;whiteSpace=wrap;html=1;fillColor=#ffbb8a;fontColor=#000000;strokeColor=#C73500;fontSize=14;verticalAlign=middle;fontFamily=Comic Sans MS;" parent="AflWwfmr-6gilCycjoMJ-1" vertex="1">
          <mxGeometry x="1785" y="180" width="255" height="290" as="geometry" />
        </mxCell>
        <mxCell id="MHvYwJk31liGYIqGSOy9-55" value="" style="rounded=0;whiteSpace=wrap;html=1;fillColor=#f778b8;strokeColor=#666666;fontColor=#000000;fontSize=14;verticalAlign=middle;fontFamily=Comic Sans MS;" parent="AflWwfmr-6gilCycjoMJ-1" vertex="1">
          <mxGeometry x="1255" y="180" width="235" height="290" as="geometry" />
        </mxCell>
        <mxCell id="MHvYwJk31liGYIqGSOy9-53" value="" style="rounded=0;whiteSpace=wrap;html=1;fillColor=#f8cecc;strokeColor=#b85450;fontSize=14;verticalAlign=middle;fontFamily=Comic Sans MS;fontColor=#000000;" parent="AflWwfmr-6gilCycjoMJ-1" vertex="1">
          <mxGeometry x="515" y="10" width="455" height="140" as="geometry" />
        </mxCell>
        <mxCell id="MHvYwJk31liGYIqGSOy9-46" value="" style="rounded=0;whiteSpace=wrap;html=1;fillColor=#ffff88;strokeColor=#36393d;fontSize=14;verticalAlign=middle;fontFamily=Comic Sans MS;fontColor=#000000;" parent="AflWwfmr-6gilCycjoMJ-1" vertex="1">
          <mxGeometry x="973.5" y="180" width="275" height="780" as="geometry" />
        </mxCell>
        <mxCell id="MHvYwJk31liGYIqGSOy9-44" value="" style="rounded=0;whiteSpace=wrap;html=1;fillColor=#f8cecc;strokeColor=#b85450;fontSize=14;verticalAlign=middle;fontFamily=Comic Sans MS;fontColor=#000000;" parent="AflWwfmr-6gilCycjoMJ-1" vertex="1">
          <mxGeometry x="710" y="500" width="250" height="460" as="geometry" />
        </mxCell>
        <mxCell id="MHvYwJk31liGYIqGSOy9-15" value="" style="rounded=0;whiteSpace=wrap;html=1;fillColor=#e1d5e7;strokeColor=#9673a6;fontSize=14;verticalAlign=middle;fontFamily=Comic Sans MS;fontColor=#000000;" parent="AflWwfmr-6gilCycjoMJ-1" vertex="1">
          <mxGeometry x="515" y="500" width="175" height="460" as="geometry" />
        </mxCell>
        <mxCell id="MHvYwJk31liGYIqGSOy9-13" value="" style="rounded=0;whiteSpace=wrap;html=1;fillColor=#fff694;strokeColor=#d6b656;fontSize=14;verticalAlign=middle;fontFamily=Comic Sans MS;fontColor=#000000;" parent="AflWwfmr-6gilCycjoMJ-1" vertex="1">
          <mxGeometry x="355" y="500" width="155" height="460" as="geometry" />
        </mxCell>
        <mxCell id="MHvYwJk31liGYIqGSOy9-6" value="" style="rounded=0;whiteSpace=wrap;html=1;fillColor=#ffe6cc;strokeColor=#d79b00;fontSize=14;verticalAlign=middle;fontFamily=Comic Sans MS;fontColor=#000000;" parent="AflWwfmr-6gilCycjoMJ-1" vertex="1">
          <mxGeometry x="15" y="11" width="485" height="139" as="geometry" />
        </mxCell>
        <mxCell id="AflWwfmr-6gilCycjoMJ-4" value="" style="rounded=1;whiteSpace=wrap;html=1;fontSize=14;verticalAlign=middle;fontFamily=Comic Sans MS;fontColor=#000000;" parent="AflWwfmr-6gilCycjoMJ-1" vertex="1">
          <mxGeometry x="1795" y="201" width="230" height="240" as="geometry" />
        </mxCell>
        <mxCell id="od0R0NQeDGxOQlxYoaMJ-5" value="物件" style="rounded=1;whiteSpace=wrap;html=1;fontSize=14;verticalAlign=middle;fontFamily=Comic Sans MS;fontColor=#000000;" parent="AflWwfmr-6gilCycjoMJ-1" vertex="1">
          <mxGeometry x="1850" y="258.5" width="120" height="30" as="geometry" />
        </mxCell>
        <mxCell id="od0R0NQeDGxOQlxYoaMJ-9" value="物件" style="rounded=1;whiteSpace=wrap;html=1;fontSize=14;verticalAlign=middle;fontFamily=Comic Sans MS;fontColor=#000000;" parent="AflWwfmr-6gilCycjoMJ-1" vertex="1">
          <mxGeometry x="1850" y="361" width="120" height="30" as="geometry" />
        </mxCell>
        <mxCell id="od0R0NQeDGxOQlxYoaMJ-8" value="物件" style="rounded=1;whiteSpace=wrap;html=1;fontSize=14;verticalAlign=middle;fontFamily=Comic Sans MS;fontColor=#000000;" parent="AflWwfmr-6gilCycjoMJ-1" vertex="1">
          <mxGeometry x="1850" y="311" width="120" height="30" as="geometry" />
        </mxCell>
        <mxCell id="od0R0NQeDGxOQlxYoaMJ-14" value="行為" style="rounded=0;whiteSpace=wrap;html=1;fontSize=14;verticalAlign=middle;fontFamily=Comic Sans MS;fontColor=#000000;" parent="AflWwfmr-6gilCycjoMJ-1" vertex="1">
          <mxGeometry x="370" y="511" width="120" height="140" as="geometry" />
        </mxCell>
        <mxCell id="od0R0NQeDGxOQlxYoaMJ-15" value="物件" style="rounded=1;whiteSpace=wrap;html=1;fontSize=14;verticalAlign=middle;fontFamily=Comic Sans MS;fontColor=#000000;" parent="AflWwfmr-6gilCycjoMJ-1" vertex="1">
          <mxGeometry x="370" y="671" width="120" height="60" as="geometry" />
        </mxCell>
        <mxCell id="od0R0NQeDGxOQlxYoaMJ-17" value="行為" style="rounded=0;whiteSpace=wrap;html=1;fontSize=14;verticalAlign=middle;fontFamily=Comic Sans MS;fontColor=#000000;" parent="AflWwfmr-6gilCycjoMJ-1" vertex="1">
          <mxGeometry x="370" y="751" width="120" height="170" as="geometry" />
        </mxCell>
        <mxCell id="od0R0NQeDGxOQlxYoaMJ-18" value="父物件" style="rounded=1;whiteSpace=wrap;html=1;fontSize=14;verticalAlign=middle;fontFamily=Comic Sans MS;fontColor=#000000;" parent="AflWwfmr-6gilCycjoMJ-1" vertex="1">
          <mxGeometry x="1500" y="201" width="270" height="60" as="geometry" />
        </mxCell>
        <mxCell id="od0R0NQeDGxOQlxYoaMJ-21" value="子物件" style="rounded=1;whiteSpace=wrap;html=1;fontSize=14;verticalAlign=middle;fontFamily=Comic Sans MS;fontColor=#000000;" parent="AflWwfmr-6gilCycjoMJ-1" vertex="1">
          <mxGeometry x="1500" y="291" width="130" height="60" as="geometry" />
        </mxCell>
        <mxCell id="od0R0NQeDGxOQlxYoaMJ-20" value="子物件" style="rounded=1;whiteSpace=wrap;html=1;fontSize=14;verticalAlign=middle;fontFamily=Comic Sans MS;fontColor=#000000;" parent="AflWwfmr-6gilCycjoMJ-1" vertex="1">
          <mxGeometry x="1640" y="291" width="130" height="60" as="geometry" />
        </mxCell>
        <mxCell id="od0R0NQeDGxOQlxYoaMJ-19" value="葉物件" style="rounded=1;whiteSpace=wrap;html=1;fontSize=14;verticalAlign=middle;fontFamily=Comic Sans MS;fontColor=#000000;" parent="AflWwfmr-6gilCycjoMJ-1" vertex="1">
          <mxGeometry x="1500" y="375.25" width="60" height="60" as="geometry" />
        </mxCell>
        <mxCell id="od0R0NQeDGxOQlxYoaMJ-23" value="葉物件" style="rounded=1;whiteSpace=wrap;html=1;fontSize=14;verticalAlign=middle;fontFamily=Comic Sans MS;fontColor=#000000;" parent="AflWwfmr-6gilCycjoMJ-1" vertex="1">
          <mxGeometry x="1570" y="375.25" width="60" height="60" as="geometry" />
        </mxCell>
        <mxCell id="od0R0NQeDGxOQlxYoaMJ-25" value="葉物件" style="rounded=1;whiteSpace=wrap;html=1;fontSize=14;verticalAlign=middle;fontFamily=Comic Sans MS;fontColor=#000000;" parent="AflWwfmr-6gilCycjoMJ-1" vertex="1">
          <mxGeometry x="1640" y="375.25" width="60" height="60" as="geometry" />
        </mxCell>
        <mxCell id="od0R0NQeDGxOQlxYoaMJ-24" value="葉物件" style="rounded=1;whiteSpace=wrap;html=1;fontSize=14;verticalAlign=middle;fontFamily=Comic Sans MS;fontColor=#000000;" parent="AflWwfmr-6gilCycjoMJ-1" vertex="1">
          <mxGeometry x="1710" y="375.25" width="60" height="60" as="geometry" />
        </mxCell>
        <mxCell id="od0R0NQeDGxOQlxYoaMJ-26" value="" style="rounded=1;whiteSpace=wrap;html=1;fontSize=14;verticalAlign=middle;fontFamily=Comic Sans MS;fontColor=#000000;" parent="AflWwfmr-6gilCycjoMJ-1" vertex="1">
          <mxGeometry x="2057" y="200" width="180" height="240" as="geometry" />
        </mxCell>
        <mxCell id="od0R0NQeDGxOQlxYoaMJ-27" value="物件" style="rounded=1;whiteSpace=wrap;html=1;fontSize=14;verticalAlign=middle;fontFamily=Comic Sans MS;fontColor=#000000;" parent="AflWwfmr-6gilCycjoMJ-1" vertex="1">
          <mxGeometry x="2084.5" y="283.5" width="125" height="85" as="geometry" />
        </mxCell>
        <mxCell id="od0R0NQeDGxOQlxYoaMJ-30" value="&lt;font style=&quot;font-size: 14px;&quot;&gt;物件&lt;/font&gt;" style="rounded=1;whiteSpace=wrap;html=1;fontSize=14;verticalAlign=middle;fontFamily=Comic Sans MS;fontColor=#000000;" parent="AflWwfmr-6gilCycjoMJ-1" vertex="1">
          <mxGeometry x="330" y="51" width="120" height="60" as="geometry" />
        </mxCell>
        <mxCell id="od0R0NQeDGxOQlxYoaMJ-31" value="&lt;font style=&quot;font-size: 14px;&quot;&gt;物件&lt;/font&gt;" style="rounded=1;whiteSpace=wrap;html=1;fontSize=14;verticalAlign=middle;fontFamily=Comic Sans MS;fontColor=#000000;" parent="AflWwfmr-6gilCycjoMJ-1" vertex="1">
          <mxGeometry x="20" y="200" width="930" height="230" as="geometry" />
        </mxCell>
        <mxCell id="od0R0NQeDGxOQlxYoaMJ-34" value="中介物件" style="rounded=1;whiteSpace=wrap;html=1;fontSize=14;verticalAlign=middle;fontFamily=Comic Sans MS;fontColor=#000000;" parent="AflWwfmr-6gilCycjoMJ-1" vertex="1">
          <mxGeometry x="1270" y="322.75" width="200" height="35" as="geometry" />
        </mxCell>
        <mxCell id="od0R0NQeDGxOQlxYoaMJ-35" value="物件" style="rounded=1;whiteSpace=wrap;html=1;fontSize=14;verticalAlign=middle;fontFamily=Comic Sans MS;fontColor=#000000;" parent="AflWwfmr-6gilCycjoMJ-1" vertex="1">
          <mxGeometry x="1270" y="375.25" width="60" height="60" as="geometry" />
        </mxCell>
        <mxCell id="od0R0NQeDGxOQlxYoaMJ-36" value="物件" style="rounded=1;whiteSpace=wrap;html=1;fontSize=14;verticalAlign=middle;fontFamily=Comic Sans MS;fontColor=#000000;" parent="AflWwfmr-6gilCycjoMJ-1" vertex="1">
          <mxGeometry x="1340" y="375.25" width="60" height="60" as="geometry" />
        </mxCell>
        <mxCell id="od0R0NQeDGxOQlxYoaMJ-37" value="物件" style="rounded=1;whiteSpace=wrap;html=1;fontSize=14;verticalAlign=middle;fontFamily=Comic Sans MS;fontColor=#000000;" parent="AflWwfmr-6gilCycjoMJ-1" vertex="1">
          <mxGeometry x="1410" y="375.25" width="60" height="60" as="geometry" />
        </mxCell>
        <mxCell id="od0R0NQeDGxOQlxYoaMJ-38" value="" style="rounded=0;whiteSpace=wrap;html=1;fontSize=14;verticalAlign=middle;fontFamily=Comic Sans MS;fontColor=#000000;" parent="AflWwfmr-6gilCycjoMJ-1" vertex="1">
          <mxGeometry x="520" y="509" width="160" height="410" as="geometry" />
        </mxCell>
        <mxCell id="od0R0NQeDGxOQlxYoaMJ-42" value="行為" style="rounded=0;whiteSpace=wrap;html=1;fontSize=14;verticalAlign=middle;fontFamily=Comic Sans MS;fontColor=#000000;" parent="AflWwfmr-6gilCycjoMJ-1" vertex="1">
          <mxGeometry x="540" y="569" width="120" height="60" as="geometry" />
        </mxCell>
        <mxCell id="od0R0NQeDGxOQlxYoaMJ-41" value="行為" style="rounded=0;whiteSpace=wrap;html=1;fontSize=14;verticalAlign=middle;fontFamily=Comic Sans MS;fontColor=#000000;" parent="AflWwfmr-6gilCycjoMJ-1" vertex="1">
          <mxGeometry x="540" y="649" width="120" height="60" as="geometry" />
        </mxCell>
        <mxCell id="od0R0NQeDGxOQlxYoaMJ-40" value="行為" style="rounded=0;whiteSpace=wrap;html=1;fontSize=14;verticalAlign=middle;fontFamily=Comic Sans MS;fontColor=#000000;" parent="AflWwfmr-6gilCycjoMJ-1" vertex="1">
          <mxGeometry x="540" y="744" width="120" height="60" as="geometry" />
        </mxCell>
        <mxCell id="6RVQcNZlPrnJkHk5CMSb-2" value="&lt;font style=&quot;font-size: 14px;&quot;&gt;物件&lt;/font&gt;" style="rounded=1;whiteSpace=wrap;html=1;fontSize=14;verticalAlign=middle;fontFamily=Comic Sans MS;fontColor=#000000;" parent="AflWwfmr-6gilCycjoMJ-1" vertex="1">
          <mxGeometry x="40" y="51.25" width="120" height="60" as="geometry" />
        </mxCell>
        <mxCell id="6RVQcNZlPrnJkHk5CMSb-1" value="&lt;font style=&quot;font-size: 14px;&quot;&gt;物件&lt;/font&gt;" style="rounded=1;whiteSpace=wrap;html=1;fontSize=14;verticalAlign=middle;fontFamily=Comic Sans MS;fontColor=#000000;" parent="AflWwfmr-6gilCycjoMJ-1" vertex="1">
          <mxGeometry x="185" y="51" width="120" height="60" as="geometry" />
        </mxCell>
        <mxCell id="6RVQcNZlPrnJkHk5CMSb-6" value="" style="swimlane;startSize=0;fontSize=14;verticalAlign=middle;fontFamily=Comic Sans MS;fontColor=#000000;" parent="AflWwfmr-6gilCycjoMJ-1" vertex="1">
          <mxGeometry x="100" y="511" width="241" height="410" as="geometry" />
        </mxCell>
        <mxCell id="MHvYwJk31liGYIqGSOy9-10" value="" style="rounded=0;whiteSpace=wrap;html=1;fillColor=#d5e8d4;strokeColor=#82b366;fontSize=14;verticalAlign=middle;fontFamily=Comic Sans MS;fontColor=#000000;" parent="6RVQcNZlPrnJkHk5CMSb-6" vertex="1">
          <mxGeometry x="15" y="129" width="215" height="271" as="geometry" />
        </mxCell>
        <mxCell id="MHvYwJk31liGYIqGSOy9-8" value="" style="rounded=0;whiteSpace=wrap;html=1;fillColor=#dae8fc;strokeColor=#6c8ebf;fontSize=14;verticalAlign=middle;fontFamily=Comic Sans MS;fontColor=#000000;" parent="6RVQcNZlPrnJkHk5CMSb-6" vertex="1">
          <mxGeometry x="20" y="40" width="210" height="80" as="geometry" />
        </mxCell>
        <mxCell id="6RVQcNZlPrnJkHk5CMSb-5" value="&lt;font style=&quot;font-size: 14px;&quot;&gt;行為&lt;/font&gt;" style="text;html=1;strokeColor=none;fillColor=none;align=center;verticalAlign=middle;whiteSpace=wrap;rounded=0;fontSize=14;fontFamily=Comic Sans MS;fontColor=#000000;" parent="6RVQcNZlPrnJkHk5CMSb-6" vertex="1">
          <mxGeometry x="96" y="10" width="60" height="30" as="geometry" />
        </mxCell>
        <mxCell id="od0R0NQeDGxOQlxYoaMJ-43" value="&lt;font style=&quot;font-size: 14px;&quot;&gt;共同行為&lt;/font&gt;" style="rounded=0;whiteSpace=wrap;html=1;fontSize=14;verticalAlign=middle;fontFamily=Comic Sans MS;fontColor=#000000;" parent="6RVQcNZlPrnJkHk5CMSb-6" vertex="1">
          <mxGeometry x="31" y="50" width="189" height="40" as="geometry" />
        </mxCell>
        <mxCell id="6RVQcNZlPrnJkHk5CMSb-9" value="行為" style="rounded=0;whiteSpace=wrap;html=1;fontSize=14;verticalAlign=middle;fontFamily=Comic Sans MS;fontColor=#000000;" parent="6RVQcNZlPrnJkHk5CMSb-6" vertex="1">
          <mxGeometry x="31" y="139" width="50" height="230" as="geometry" />
        </mxCell>
        <mxCell id="6RVQcNZlPrnJkHk5CMSb-8" value="行為" style="rounded=0;whiteSpace=wrap;html=1;fontSize=14;verticalAlign=middle;fontFamily=Comic Sans MS;fontColor=#000000;" parent="6RVQcNZlPrnJkHk5CMSb-6" vertex="1">
          <mxGeometry x="100.5" y="139" width="50" height="230" as="geometry" />
        </mxCell>
        <mxCell id="od0R0NQeDGxOQlxYoaMJ-12" value="行為" style="rounded=0;whiteSpace=wrap;html=1;fontSize=14;verticalAlign=middle;fontFamily=Comic Sans MS;fontColor=#000000;" parent="6RVQcNZlPrnJkHk5CMSb-6" vertex="1">
          <mxGeometry x="170" y="139" width="50" height="230" as="geometry" />
        </mxCell>
        <mxCell id="MHvYwJk31liGYIqGSOy9-9" value="Template" style="text;html=1;strokeColor=none;fillColor=none;align=center;verticalAlign=middle;whiteSpace=wrap;rounded=0;fontSize=14;fontFamily=Comic Sans MS;fontColor=#000000;" parent="6RVQcNZlPrnJkHk5CMSb-6" vertex="1">
          <mxGeometry x="95" y="90" width="60" height="30" as="geometry" />
        </mxCell>
        <mxCell id="MHvYwJk31liGYIqGSOy9-11" value="Strategy" style="text;html=1;align=center;verticalAlign=middle;whiteSpace=wrap;rounded=0;fontSize=14;fontFamily=Comic Sans MS;fontColor=#000000;" parent="6RVQcNZlPrnJkHk5CMSb-6" vertex="1">
          <mxGeometry x="95" y="370" width="60" height="30" as="geometry" />
        </mxCell>
        <mxCell id="6RVQcNZlPrnJkHk5CMSb-10" value="行為" style="rounded=0;whiteSpace=wrap;html=1;fontSize=14;verticalAlign=middle;fontFamily=Comic Sans MS;fontColor=#000000;" parent="AflWwfmr-6gilCycjoMJ-1" vertex="1">
          <mxGeometry x="540" y="829" width="120" height="60" as="geometry" />
        </mxCell>
        <mxCell id="6RVQcNZlPrnJkHk5CMSb-11" value="行為鏈" style="text;html=1;strokeColor=none;fillColor=none;align=center;verticalAlign=middle;whiteSpace=wrap;rounded=0;fontSize=14;fontFamily=Comic Sans MS;fontColor=#000000;" parent="AflWwfmr-6gilCycjoMJ-1" vertex="1">
          <mxGeometry x="570" y="519" width="60" height="30" as="geometry" />
        </mxCell>
        <mxCell id="6RVQcNZlPrnJkHk5CMSb-23" value="" style="rounded=1;whiteSpace=wrap;html=1;fontSize=14;verticalAlign=middle;fontFamily=Comic Sans MS;fontColor=#000000;" parent="AflWwfmr-6gilCycjoMJ-1" vertex="1">
          <mxGeometry x="530" y="53.5" width="127" height="60" as="geometry" />
        </mxCell>
        <mxCell id="6RVQcNZlPrnJkHk5CMSb-25" value="狀態" style="whiteSpace=wrap;html=1;aspect=fixed;strokeColor=default;rounded=0;fontSize=14;verticalAlign=middle;fontFamily=Comic Sans MS;fontColor=#000000;" parent="AflWwfmr-6gilCycjoMJ-1" vertex="1">
          <mxGeometry x="542" y="58.5" width="50" height="50" as="geometry" />
        </mxCell>
        <mxCell id="6RVQcNZlPrnJkHk5CMSb-26" value="物件" style="text;html=1;strokeColor=none;fillColor=none;align=center;verticalAlign=middle;whiteSpace=wrap;rounded=0;fontSize=14;fontFamily=Comic Sans MS;fontColor=#000000;" parent="AflWwfmr-6gilCycjoMJ-1" vertex="1">
          <mxGeometry x="595" y="71" width="60" height="30" as="geometry" />
        </mxCell>
        <mxCell id="6RVQcNZlPrnJkHk5CMSb-30" value="" style="rounded=1;whiteSpace=wrap;html=1;fontSize=14;verticalAlign=middle;fontFamily=Comic Sans MS;fontColor=#000000;" parent="AflWwfmr-6gilCycjoMJ-1" vertex="1">
          <mxGeometry x="680" y="51" width="127" height="60" as="geometry" />
        </mxCell>
        <mxCell id="6RVQcNZlPrnJkHk5CMSb-31" value="狀態" style="whiteSpace=wrap;html=1;aspect=fixed;fontSize=14;verticalAlign=middle;fontFamily=Comic Sans MS;fontColor=#000000;" parent="AflWwfmr-6gilCycjoMJ-1" vertex="1">
          <mxGeometry x="695" y="56" width="50" height="50" as="geometry" />
        </mxCell>
        <mxCell id="6RVQcNZlPrnJkHk5CMSb-32" value="物件" style="text;html=1;strokeColor=none;fillColor=none;align=center;verticalAlign=middle;whiteSpace=wrap;rounded=0;fontSize=14;fontFamily=Comic Sans MS;fontColor=#000000;" parent="AflWwfmr-6gilCycjoMJ-1" vertex="1">
          <mxGeometry x="747" y="67.5" width="60" height="30" as="geometry" />
        </mxCell>
        <mxCell id="6RVQcNZlPrnJkHk5CMSb-33" value="" style="rounded=1;whiteSpace=wrap;html=1;fontSize=14;verticalAlign=middle;fontFamily=Comic Sans MS;fontColor=#000000;" parent="AflWwfmr-6gilCycjoMJ-1" vertex="1">
          <mxGeometry x="823" y="51" width="127" height="60" as="geometry" />
        </mxCell>
        <mxCell id="6RVQcNZlPrnJkHk5CMSb-34" value="狀態" style="whiteSpace=wrap;html=1;aspect=fixed;fontSize=14;verticalAlign=middle;fontFamily=Comic Sans MS;fontColor=#000000;" parent="AflWwfmr-6gilCycjoMJ-1" vertex="1">
          <mxGeometry x="835" y="56" width="50" height="50" as="geometry" />
        </mxCell>
        <mxCell id="6RVQcNZlPrnJkHk5CMSb-35" value="物件" style="text;html=1;strokeColor=none;fillColor=none;align=center;verticalAlign=middle;whiteSpace=wrap;rounded=0;fontSize=14;fontFamily=Comic Sans MS;fontColor=#000000;" parent="AflWwfmr-6gilCycjoMJ-1" vertex="1">
          <mxGeometry x="887" y="68.5" width="60" height="30" as="geometry" />
        </mxCell>
        <mxCell id="6RVQcNZlPrnJkHk5CMSb-38" value="物件" style="text;html=1;strokeColor=none;fillColor=none;align=center;verticalAlign=middle;whiteSpace=wrap;rounded=0;fontSize=14;fontFamily=Comic Sans MS;fontColor=#000000;" parent="AflWwfmr-6gilCycjoMJ-1" vertex="1">
          <mxGeometry x="1880" y="211" width="60" height="30" as="geometry" />
        </mxCell>
        <mxCell id="6RVQcNZlPrnJkHk5CMSb-41" value="物件" style="rounded=1;whiteSpace=wrap;html=1;fontSize=14;verticalAlign=middle;fontFamily=Comic Sans MS;fontColor=#000000;" parent="AflWwfmr-6gilCycjoMJ-1" vertex="1">
          <mxGeometry x="1270" y="201" width="60" height="60" as="geometry" />
        </mxCell>
        <mxCell id="6RVQcNZlPrnJkHk5CMSb-40" value="物件" style="rounded=1;whiteSpace=wrap;html=1;fontSize=14;verticalAlign=middle;fontFamily=Comic Sans MS;fontColor=#000000;" parent="AflWwfmr-6gilCycjoMJ-1" vertex="1">
          <mxGeometry x="1340" y="201" width="60" height="60" as="geometry" />
        </mxCell>
        <mxCell id="6RVQcNZlPrnJkHk5CMSb-39" value="物件" style="rounded=1;whiteSpace=wrap;html=1;fontSize=14;verticalAlign=middle;fontFamily=Comic Sans MS;fontColor=#000000;" parent="AflWwfmr-6gilCycjoMJ-1" vertex="1">
          <mxGeometry x="1410" y="201" width="60" height="60" as="geometry" />
        </mxCell>
        <mxCell id="6RVQcNZlPrnJkHk5CMSb-104" value="中介物件" style="rounded=1;whiteSpace=wrap;html=1;fontSize=14;verticalAlign=middle;fontFamily=Comic Sans MS;fontColor=#000000;" parent="AflWwfmr-6gilCycjoMJ-1" vertex="1">
          <mxGeometry x="1270" y="270.25" width="200" height="35" as="geometry" />
        </mxCell>
        <mxCell id="hc8bJ8ulxfUXJLUtWlQE-1" value="代理物件" style="text;html=1;strokeColor=none;fillColor=none;align=center;verticalAlign=middle;whiteSpace=wrap;rounded=0;fontSize=14;fontFamily=Comic Sans MS;fontColor=#000000;" parent="AflWwfmr-6gilCycjoMJ-1" vertex="1">
          <mxGeometry x="2117" y="216" width="60" height="30" as="geometry" />
        </mxCell>
        <mxCell id="hc8bJ8ulxfUXJLUtWlQE-4" value="行為" style="rounded=0;whiteSpace=wrap;html=1;align=center;fontSize=14;verticalAlign=middle;fontFamily=Comic Sans MS;fontColor=#000000;" parent="AflWwfmr-6gilCycjoMJ-1" vertex="1">
          <mxGeometry x="1310" y="509" width="60" height="410" as="geometry" />
        </mxCell>
        <mxCell id="hc8bJ8ulxfUXJLUtWlQE-5" value="行為" style="rounded=0;whiteSpace=wrap;html=1;align=center;fontSize=14;verticalAlign=middle;fontFamily=Comic Sans MS;fontColor=#000000;" parent="AflWwfmr-6gilCycjoMJ-1" vertex="1">
          <mxGeometry x="1410" y="509" width="60" height="410" as="geometry" />
        </mxCell>
        <mxCell id="hc8bJ8ulxfUXJLUtWlQE-6" value="行為" style="rounded=0;whiteSpace=wrap;html=1;align=center;fontSize=14;verticalAlign=middle;fontFamily=Comic Sans MS;fontColor=#000000;" parent="AflWwfmr-6gilCycjoMJ-1" vertex="1">
          <mxGeometry x="1500" y="509" width="60" height="410" as="geometry" />
        </mxCell>
        <mxCell id="hc8bJ8ulxfUXJLUtWlQE-7" value="行為" style="rounded=0;whiteSpace=wrap;html=1;align=center;fontSize=14;verticalAlign=middle;fontFamily=Comic Sans MS;fontColor=#000000;" parent="AflWwfmr-6gilCycjoMJ-1" vertex="1">
          <mxGeometry x="1590" y="509" width="60" height="410" as="geometry" />
        </mxCell>
        <mxCell id="hc8bJ8ulxfUXJLUtWlQE-8" value="行為" style="rounded=0;whiteSpace=wrap;html=1;align=center;fontSize=14;verticalAlign=middle;fontFamily=Comic Sans MS;fontColor=#000000;" parent="AflWwfmr-6gilCycjoMJ-1" vertex="1">
          <mxGeometry x="1670" y="509" width="60" height="410" as="geometry" />
        </mxCell>
        <mxCell id="hc8bJ8ulxfUXJLUtWlQE-9" value="行為" style="rounded=0;whiteSpace=wrap;html=1;align=center;fontSize=14;verticalAlign=middle;fontFamily=Comic Sans MS;fontColor=#000000;" parent="AflWwfmr-6gilCycjoMJ-1" vertex="1">
          <mxGeometry x="1760" y="509" width="60" height="410" as="geometry" />
        </mxCell>
        <mxCell id="hc8bJ8ulxfUXJLUtWlQE-10" value="行為" style="rounded=0;whiteSpace=wrap;html=1;align=center;fontSize=14;verticalAlign=middle;fontFamily=Comic Sans MS;fontColor=#000000;" parent="AflWwfmr-6gilCycjoMJ-1" vertex="1">
          <mxGeometry x="1860" y="509" width="60" height="410" as="geometry" />
        </mxCell>
        <mxCell id="hc8bJ8ulxfUXJLUtWlQE-11" value="行為" style="rounded=0;whiteSpace=wrap;html=1;align=center;fontSize=14;verticalAlign=middle;fontFamily=Comic Sans MS;fontColor=#000000;" parent="AflWwfmr-6gilCycjoMJ-1" vertex="1">
          <mxGeometry x="1965" y="509" width="60" height="410" as="geometry" />
        </mxCell>
        <mxCell id="hc8bJ8ulxfUXJLUtWlQE-12" value="行為" style="rounded=0;whiteSpace=wrap;html=1;align=center;fontSize=14;verticalAlign=middle;fontFamily=Comic Sans MS;fontColor=#000000;" parent="AflWwfmr-6gilCycjoMJ-1" vertex="1">
          <mxGeometry x="2057" y="509" width="60" height="410" as="geometry" />
        </mxCell>
        <mxCell id="hc8bJ8ulxfUXJLUtWlQE-13" value="行為" style="rounded=0;whiteSpace=wrap;html=1;align=center;fontSize=14;verticalAlign=middle;fontFamily=Comic Sans MS;fontColor=#000000;" parent="AflWwfmr-6gilCycjoMJ-1" vertex="1">
          <mxGeometry x="2149.5" y="509" width="60" height="410" as="geometry" />
        </mxCell>
        <mxCell id="od0R0NQeDGxOQlxYoaMJ-28" value="" style="rounded=1;whiteSpace=wrap;html=1;fontSize=14;verticalAlign=middle;fontFamily=Comic Sans MS;fontColor=#000000;" parent="AflWwfmr-6gilCycjoMJ-1" vertex="1">
          <mxGeometry x="1001" y="201" width="220" height="230" as="geometry" />
        </mxCell>
        <mxCell id="od0R0NQeDGxOQlxYoaMJ-32" value="" style="rounded=1;whiteSpace=wrap;html=1;fontSize=14;verticalAlign=middle;fontFamily=Comic Sans MS;fontColor=#000000;" parent="AflWwfmr-6gilCycjoMJ-1" vertex="1">
          <mxGeometry x="1041" y="256" width="140" height="140" as="geometry" />
        </mxCell>
        <mxCell id="od0R0NQeDGxOQlxYoaMJ-33" value="物件" style="rounded=1;whiteSpace=wrap;html=1;fontSize=14;verticalAlign=middle;fontFamily=Comic Sans MS;fontColor=#000000;" parent="AflWwfmr-6gilCycjoMJ-1" vertex="1">
          <mxGeometry x="1078.5" y="305.25" width="65" height="70" as="geometry" />
        </mxCell>
        <mxCell id="hc8bJ8ulxfUXJLUtWlQE-14" value="物件" style="text;html=1;strokeColor=none;fillColor=none;align=center;verticalAlign=middle;whiteSpace=wrap;rounded=0;fontSize=14;fontFamily=Comic Sans MS;fontColor=#000000;" parent="AflWwfmr-6gilCycjoMJ-1" vertex="1">
          <mxGeometry x="1078.5" y="261" width="60" height="30" as="geometry" />
        </mxCell>
        <mxCell id="hc8bJ8ulxfUXJLUtWlQE-15" value="物件" style="text;html=1;strokeColor=none;fillColor=none;align=center;verticalAlign=middle;whiteSpace=wrap;rounded=0;fontSize=14;fontFamily=Comic Sans MS;fontColor=#000000;" parent="AflWwfmr-6gilCycjoMJ-1" vertex="1">
          <mxGeometry x="1079.5" y="216" width="60" height="30" as="geometry" />
        </mxCell>
        <mxCell id="hc8bJ8ulxfUXJLUtWlQE-27" value="行為" style="rounded=0;whiteSpace=wrap;html=1;align=center;fontSize=14;verticalAlign=middle;fontFamily=Comic Sans MS;fontColor=#000000;" parent="AflWwfmr-6gilCycjoMJ-1" vertex="1">
          <mxGeometry x="20" y="509" width="60" height="410" as="geometry" />
        </mxCell>
        <mxCell id="hc8bJ8ulxfUXJLUtWlQE-36" value="委派" style="html=1;verticalAlign=middle;endArrow=block;curved=0;rounded=0;exitX=0.035;exitY=1.01;exitDx=0;exitDy=0;exitPerimeter=0;entryX=0.5;entryY=0;entryDx=0;entryDy=0;fontSize=14;fontFamily=Comic Sans MS;fontColor=#000000;" parent="AflWwfmr-6gilCycjoMJ-1" source="od0R0NQeDGxOQlxYoaMJ-31" target="hc8bJ8ulxfUXJLUtWlQE-27" edge="1">
          <mxGeometry width="80" relative="1" as="geometry">
            <mxPoint x="390" y="620" as="sourcePoint" />
            <mxPoint x="470" y="620" as="targetPoint" />
          </mxGeometry>
        </mxCell>
        <mxCell id="hc8bJ8ulxfUXJLUtWlQE-37" value="委派" style="html=1;verticalAlign=middle;endArrow=block;curved=0;rounded=0;exitX=0.217;exitY=1;exitDx=0;exitDy=0;exitPerimeter=0;entryX=0.5;entryY=0;entryDx=0;entryDy=0;fontSize=14;fontFamily=Comic Sans MS;fontColor=#000000;" parent="AflWwfmr-6gilCycjoMJ-1" target="6RVQcNZlPrnJkHk5CMSb-6" edge="1">
          <mxGeometry width="80" relative="1" as="geometry">
            <mxPoint x="221.80999999999995" y="431" as="sourcePoint" />
            <mxPoint x="60" y="520" as="targetPoint" />
          </mxGeometry>
        </mxCell>
        <mxCell id="hc8bJ8ulxfUXJLUtWlQE-38" value="委派" style="html=1;verticalAlign=middle;endArrow=block;curved=0;rounded=0;entryX=0.5;entryY=0;entryDx=0;entryDy=0;exitX=0.442;exitY=1.004;exitDx=0;exitDy=0;exitPerimeter=0;fontSize=14;fontFamily=Comic Sans MS;fontColor=#000000;" parent="AflWwfmr-6gilCycjoMJ-1" target="od0R0NQeDGxOQlxYoaMJ-14" edge="1">
          <mxGeometry width="80" relative="1" as="geometry">
            <mxPoint x="431.05999999999995" y="431.9200000000001" as="sourcePoint" />
            <mxPoint x="70" y="530" as="targetPoint" />
          </mxGeometry>
        </mxCell>
        <mxCell id="hc8bJ8ulxfUXJLUtWlQE-39" value="委派" style="html=1;verticalAlign=middle;endArrow=block;curved=0;rounded=0;entryX=0.5;entryY=0;entryDx=0;entryDy=0;exitX=0.624;exitY=1.01;exitDx=0;exitDy=0;exitPerimeter=0;fontSize=14;fontFamily=Comic Sans MS;fontColor=#000000;" parent="AflWwfmr-6gilCycjoMJ-1" target="od0R0NQeDGxOQlxYoaMJ-38" edge="1">
          <mxGeometry width="80" relative="1" as="geometry">
            <mxPoint x="600.3200000000002" y="433.29999999999995" as="sourcePoint" />
            <mxPoint x="440" y="521" as="targetPoint" />
          </mxGeometry>
        </mxCell>
        <mxCell id="hc8bJ8ulxfUXJLUtWlQE-40" value="委派" style="html=1;verticalAlign=middle;endArrow=block;curved=0;rounded=0;entryX=0.477;entryY=0.002;entryDx=0;entryDy=0;entryPerimeter=0;exitX=0.871;exitY=1;exitDx=0;exitDy=0;exitPerimeter=0;fontSize=14;fontFamily=Comic Sans MS;fontColor=#000000;" parent="AflWwfmr-6gilCycjoMJ-1" edge="1">
          <mxGeometry width="80" relative="1" as="geometry">
            <mxPoint x="825.0299999999997" y="431" as="sourcePoint" />
            <mxPoint x="824.9569999999999" y="509.81999999999994" as="targetPoint" />
          </mxGeometry>
        </mxCell>
        <mxCell id="hc8bJ8ulxfUXJLUtWlQE-41" value="" style="endArrow=block;dashed=1;endFill=0;endSize=12;html=1;rounded=0;exitX=0.5;exitY=1;exitDx=0;exitDy=0;entryX=0.161;entryY=-0.01;entryDx=0;entryDy=0;entryPerimeter=0;fontSize=14;verticalAlign=middle;fontFamily=Comic Sans MS;fontColor=#000000;" parent="AflWwfmr-6gilCycjoMJ-1" edge="1">
          <mxGeometry width="160" relative="1" as="geometry">
            <mxPoint x="100" y="112.25" as="sourcePoint" />
            <mxPoint x="169.73000000000002" y="198.70000000000005" as="targetPoint" />
          </mxGeometry>
        </mxCell>
        <mxCell id="hc8bJ8ulxfUXJLUtWlQE-42" value="" style="endArrow=block;dashed=1;endFill=0;endSize=12;html=1;rounded=0;exitX=0.5;exitY=1;exitDx=0;exitDy=0;entryX=0.244;entryY=-0.01;entryDx=0;entryDy=0;entryPerimeter=0;fontSize=14;verticalAlign=middle;fontFamily=Comic Sans MS;fontColor=#000000;" parent="AflWwfmr-6gilCycjoMJ-1" source="6RVQcNZlPrnJkHk5CMSb-1" edge="1">
          <mxGeometry width="160" relative="1" as="geometry">
            <mxPoint x="110" y="122" as="sourcePoint" />
            <mxPoint x="246.92000000000007" y="198.70000000000005" as="targetPoint" />
          </mxGeometry>
        </mxCell>
        <mxCell id="hc8bJ8ulxfUXJLUtWlQE-43" value="" style="endArrow=block;dashed=1;endFill=0;endSize=12;html=1;rounded=0;exitX=0.5;exitY=1;exitDx=0;exitDy=0;entryX=0.323;entryY=0.005;entryDx=0;entryDy=0;entryPerimeter=0;fontSize=14;verticalAlign=middle;fontFamily=Comic Sans MS;fontColor=#000000;" parent="AflWwfmr-6gilCycjoMJ-1" source="od0R0NQeDGxOQlxYoaMJ-30" edge="1">
          <mxGeometry width="160" relative="1" as="geometry">
            <mxPoint x="120" y="132" as="sourcePoint" />
            <mxPoint x="320.3899999999999" y="202.1500000000001" as="targetPoint" />
          </mxGeometry>
        </mxCell>
        <mxCell id="hc8bJ8ulxfUXJLUtWlQE-44" value="" style="endArrow=block;dashed=1;endFill=0;endSize=12;html=1;rounded=0;exitX=0.5;exitY=1;exitDx=0;exitDy=0;entryX=0.688;entryY=0;entryDx=0;entryDy=0;entryPerimeter=0;fontSize=14;verticalAlign=middle;fontFamily=Comic Sans MS;fontColor=#000000;" parent="AflWwfmr-6gilCycjoMJ-1" source="6RVQcNZlPrnJkHk5CMSb-23" edge="1">
          <mxGeometry width="160" relative="1" as="geometry">
            <mxPoint x="130" y="142" as="sourcePoint" />
            <mxPoint x="659.8400000000001" y="201" as="targetPoint" />
          </mxGeometry>
        </mxCell>
        <mxCell id="hc8bJ8ulxfUXJLUtWlQE-45" value="" style="endArrow=block;dashed=1;endFill=0;endSize=12;html=1;rounded=0;exitX=0.5;exitY=1;exitDx=0;exitDy=0;entryX=0.778;entryY=0.01;entryDx=0;entryDy=0;entryPerimeter=0;fontSize=14;verticalAlign=middle;fontFamily=Comic Sans MS;fontColor=#000000;" parent="AflWwfmr-6gilCycjoMJ-1" source="6RVQcNZlPrnJkHk5CMSb-30" edge="1">
          <mxGeometry width="160" relative="1" as="geometry">
            <mxPoint x="140" y="152" as="sourcePoint" />
            <mxPoint x="743.54" y="203.29999999999995" as="targetPoint" />
          </mxGeometry>
        </mxCell>
        <mxCell id="hc8bJ8ulxfUXJLUtWlQE-46" value="" style="endArrow=block;dashed=1;endFill=0;endSize=12;html=1;rounded=0;exitX=0.5;exitY=1;exitDx=0;exitDy=0;entryX=0.885;entryY=0;entryDx=0;entryDy=0;entryPerimeter=0;fontSize=14;verticalAlign=middle;fontFamily=Comic Sans MS;fontColor=#000000;" parent="AflWwfmr-6gilCycjoMJ-1" source="6RVQcNZlPrnJkHk5CMSb-33" edge="1">
          <mxGeometry width="160" relative="1" as="geometry">
            <mxPoint x="150" y="162" as="sourcePoint" />
            <mxPoint x="843.0500000000002" y="201" as="targetPoint" />
          </mxGeometry>
        </mxCell>
        <mxCell id="hc8bJ8ulxfUXJLUtWlQE-47" value="&lt;font style=&quot;font-size: 14px;&quot;&gt;&lt;b style=&quot;font-size: 14px;&quot;&gt;or&lt;/b&gt;&lt;/font&gt;" style="text;html=1;strokeColor=none;fillColor=none;align=center;verticalAlign=middle;whiteSpace=wrap;rounded=0;fontSize=14;fontFamily=Comic Sans MS;fontColor=#000000;" parent="AflWwfmr-6gilCycjoMJ-1" vertex="1">
          <mxGeometry x="1340" y="301" width="60" height="30" as="geometry" />
        </mxCell>
        <mxCell id="hc8bJ8ulxfUXJLUtWlQE-49" value="1" style="endArrow=open;html=1;endSize=12;startArrow=diamondThin;startSize=14;startFill=0;edgeStyle=orthogonalEdgeStyle;align=left;verticalAlign=middle;rounded=0;exitX=0.5;exitY=1;exitDx=0;exitDy=0;entryX=0.5;entryY=0;entryDx=0;entryDy=0;fontSize=14;fontFamily=Comic Sans MS;fontColor=#000000;" parent="AflWwfmr-6gilCycjoMJ-1" source="od0R0NQeDGxOQlxYoaMJ-18" target="od0R0NQeDGxOQlxYoaMJ-21" edge="1">
          <mxGeometry x="-1" y="3" relative="1" as="geometry">
            <mxPoint x="1650" y="321" as="sourcePoint" />
            <mxPoint x="1810" y="321" as="targetPoint" />
          </mxGeometry>
        </mxCell>
        <mxCell id="hc8bJ8ulxfUXJLUtWlQE-50" value="1" style="endArrow=open;html=1;endSize=12;startArrow=diamondThin;startSize=14;startFill=0;edgeStyle=orthogonalEdgeStyle;align=left;verticalAlign=middle;rounded=0;exitX=0.5;exitY=1;exitDx=0;exitDy=0;entryX=0.5;entryY=0;entryDx=0;entryDy=0;fontSize=14;fontFamily=Comic Sans MS;fontColor=#000000;" parent="AflWwfmr-6gilCycjoMJ-1" source="od0R0NQeDGxOQlxYoaMJ-20" target="od0R0NQeDGxOQlxYoaMJ-24" edge="1">
          <mxGeometry x="-1" y="3" relative="1" as="geometry">
            <mxPoint x="1650" y="321" as="sourcePoint" />
            <mxPoint x="1810" y="321" as="targetPoint" />
          </mxGeometry>
        </mxCell>
        <mxCell id="hc8bJ8ulxfUXJLUtWlQE-51" value="1" style="endArrow=open;html=1;endSize=12;startArrow=diamondThin;startSize=14;startFill=0;edgeStyle=orthogonalEdgeStyle;align=left;verticalAlign=middle;rounded=0;entryX=0.5;entryY=0;entryDx=0;entryDy=0;exitX=0.5;exitY=1;exitDx=0;exitDy=0;fontSize=14;fontFamily=Comic Sans MS;fontColor=#000000;" parent="AflWwfmr-6gilCycjoMJ-1" source="od0R0NQeDGxOQlxYoaMJ-20" target="od0R0NQeDGxOQlxYoaMJ-25" edge="1">
          <mxGeometry x="-1" y="3" relative="1" as="geometry">
            <mxPoint x="1700" y="351" as="sourcePoint" />
            <mxPoint x="1810" y="321" as="targetPoint" />
          </mxGeometry>
        </mxCell>
        <mxCell id="hc8bJ8ulxfUXJLUtWlQE-60" value="1" style="endArrow=open;html=1;endSize=12;startArrow=diamondThin;startSize=14;startFill=0;edgeStyle=orthogonalEdgeStyle;align=left;verticalAlign=middle;rounded=0;exitX=0.5;exitY=1;exitDx=0;exitDy=0;entryX=0.5;entryY=0;entryDx=0;entryDy=0;fontSize=14;fontFamily=Comic Sans MS;fontColor=#000000;" parent="AflWwfmr-6gilCycjoMJ-1" source="od0R0NQeDGxOQlxYoaMJ-21" target="od0R0NQeDGxOQlxYoaMJ-19" edge="1">
          <mxGeometry x="-1" y="3" relative="1" as="geometry">
            <mxPoint x="1640" y="311" as="sourcePoint" />
            <mxPoint x="1800" y="311" as="targetPoint" />
          </mxGeometry>
        </mxCell>
        <mxCell id="hc8bJ8ulxfUXJLUtWlQE-61" value="1" style="endArrow=open;html=1;endSize=12;startArrow=diamondThin;startSize=14;startFill=0;edgeStyle=orthogonalEdgeStyle;align=left;verticalAlign=middle;rounded=0;exitX=0.5;exitY=1;exitDx=0;exitDy=0;entryX=0.5;entryY=0;entryDx=0;entryDy=0;fontSize=14;fontFamily=Comic Sans MS;fontColor=#000000;" parent="AflWwfmr-6gilCycjoMJ-1" source="od0R0NQeDGxOQlxYoaMJ-21" target="od0R0NQeDGxOQlxYoaMJ-23" edge="1">
          <mxGeometry x="-1" y="3" relative="1" as="geometry">
            <mxPoint x="1640" y="311" as="sourcePoint" />
            <mxPoint x="1800" y="311" as="targetPoint" />
          </mxGeometry>
        </mxCell>
        <mxCell id="hc8bJ8ulxfUXJLUtWlQE-48" value="1" style="endArrow=open;html=1;endSize=12;startArrow=diamondThin;startSize=14;startFill=0;edgeStyle=orthogonalEdgeStyle;align=left;verticalAlign=middle;rounded=0;exitX=0.5;exitY=1;exitDx=0;exitDy=0;entryX=0.5;entryY=0;entryDx=0;entryDy=0;fontSize=14;fontFamily=Comic Sans MS;fontColor=#000000;" parent="AflWwfmr-6gilCycjoMJ-1" source="od0R0NQeDGxOQlxYoaMJ-18" target="od0R0NQeDGxOQlxYoaMJ-20" edge="1">
          <mxGeometry x="-1" y="3" relative="1" as="geometry">
            <mxPoint x="1640" y="311" as="sourcePoint" />
            <mxPoint x="1710" y="281" as="targetPoint" />
          </mxGeometry>
        </mxCell>
        <mxCell id="MHvYwJk31liGYIqGSOy9-2" value="圖例" style="swimlane;whiteSpace=wrap;html=1;fillColor=#E6E6E6;fontSize=14;verticalAlign=middle;fontFamily=Comic Sans MS;fontColor=#000000;" parent="AflWwfmr-6gilCycjoMJ-1" vertex="1">
          <mxGeometry x="40" y="980" width="350" height="200" as="geometry" />
        </mxCell>
        <mxCell id="MHvYwJk31liGYIqGSOy9-1" value="行為" style="rounded=0;whiteSpace=wrap;html=1;fontSize=14;verticalAlign=middle;fontFamily=Comic Sans MS;fontColor=#000000;" parent="MHvYwJk31liGYIqGSOy9-2" vertex="1">
          <mxGeometry x="30" y="70" width="50" height="80" as="geometry" />
        </mxCell>
        <mxCell id="MHvYwJk31liGYIqGSOy9-3" value="物件" style="rounded=1;whiteSpace=wrap;html=1;fontSize=14;verticalAlign=middle;fontFamily=Comic Sans MS;fontColor=#000000;" parent="MHvYwJk31liGYIqGSOy9-2" vertex="1">
          <mxGeometry x="125" y="80" width="100" height="60" as="geometry" />
        </mxCell>
        <mxCell id="MHvYwJk31liGYIqGSOy9-4" value="資料" style="whiteSpace=wrap;html=1;aspect=fixed;fontSize=14;verticalAlign=middle;fontFamily=Comic Sans MS;fontColor=#000000;" parent="MHvYwJk31liGYIqGSOy9-2" vertex="1">
          <mxGeometry x="260" y="80" width="60" height="60" as="geometry" />
        </mxCell>
        <mxCell id="MHvYwJk31liGYIqGSOy9-7" value="Factory" style="text;html=1;strokeColor=none;fillColor=none;align=center;verticalAlign=middle;whiteSpace=wrap;rounded=0;fontSize=14;fontFamily=Comic Sans MS;fontColor=#000000;" parent="AflWwfmr-6gilCycjoMJ-1" vertex="1">
          <mxGeometry x="425" y="120" width="60" height="30" as="geometry" />
        </mxCell>
        <mxCell id="MHvYwJk31liGYIqGSOy9-14" value="Adapter" style="text;html=1;strokeColor=none;fillColor=none;align=center;verticalAlign=middle;whiteSpace=wrap;rounded=0;fontSize=14;fontFamily=Comic Sans MS;fontColor=#000000;" parent="AflWwfmr-6gilCycjoMJ-1" vertex="1">
          <mxGeometry x="405" y="930" width="60" height="30" as="geometry" />
        </mxCell>
        <mxCell id="MHvYwJk31liGYIqGSOy9-16" value="Chain of Responsibility" style="text;html=1;strokeColor=none;fillColor=none;align=center;verticalAlign=middle;whiteSpace=wrap;rounded=0;fontSize=14;fontFamily=Comic Sans MS;fontColor=#000000;" parent="AflWwfmr-6gilCycjoMJ-1" vertex="1">
          <mxGeometry x="527.5" y="930" width="145" height="30" as="geometry" />
        </mxCell>
        <mxCell id="MHvYwJk31liGYIqGSOy9-36" value="" style="rounded=0;whiteSpace=wrap;html=1;fontSize=14;verticalAlign=middle;fontFamily=Comic Sans MS;fontColor=#000000;" parent="AflWwfmr-6gilCycjoMJ-1" vertex="1">
          <mxGeometry x="720" y="509" width="230" height="411" as="geometry" />
        </mxCell>
        <mxCell id="MHvYwJk31liGYIqGSOy9-37" value="行為" style="text;html=1;strokeColor=none;fillColor=none;align=center;verticalAlign=middle;whiteSpace=wrap;rounded=0;fontSize=14;fontFamily=Comic Sans MS;fontColor=#000000;" parent="AflWwfmr-6gilCycjoMJ-1" vertex="1">
          <mxGeometry x="805.5" y="520" width="60" height="30" as="geometry" />
        </mxCell>
        <mxCell id="MHvYwJk31liGYIqGSOy9-38" value="行為" style="rounded=0;whiteSpace=wrap;html=1;fontSize=14;verticalAlign=middle;fontFamily=Comic Sans MS;fontColor=#000000;" parent="AflWwfmr-6gilCycjoMJ-1" vertex="1">
          <mxGeometry x="740.5" y="620" width="50" height="285" as="geometry" />
        </mxCell>
        <mxCell id="MHvYwJk31liGYIqGSOy9-39" value="行為" style="rounded=0;whiteSpace=wrap;html=1;fontSize=14;verticalAlign=middle;fontFamily=Comic Sans MS;fontColor=#000000;" parent="AflWwfmr-6gilCycjoMJ-1" vertex="1">
          <mxGeometry x="810" y="620" width="50" height="285" as="geometry" />
        </mxCell>
        <mxCell id="MHvYwJk31liGYIqGSOy9-40" value="行為" style="rounded=0;whiteSpace=wrap;html=1;fontSize=14;verticalAlign=middle;fontFamily=Comic Sans MS;fontColor=#000000;" parent="AflWwfmr-6gilCycjoMJ-1" vertex="1">
          <mxGeometry x="879.5" y="620" width="50" height="288" as="geometry" />
        </mxCell>
        <mxCell id="MHvYwJk31liGYIqGSOy9-41" value="狀態" style="whiteSpace=wrap;html=1;aspect=fixed;fontSize=14;verticalAlign=middle;fontFamily=Comic Sans MS;fontColor=#000000;" parent="AflWwfmr-6gilCycjoMJ-1" vertex="1">
          <mxGeometry x="740.5" y="550" width="50" height="50" as="geometry" />
        </mxCell>
        <mxCell id="MHvYwJk31liGYIqGSOy9-42" value="狀態" style="whiteSpace=wrap;html=1;aspect=fixed;fontSize=14;verticalAlign=middle;fontFamily=Comic Sans MS;fontColor=#000000;" parent="AflWwfmr-6gilCycjoMJ-1" vertex="1">
          <mxGeometry x="879.5" y="550" width="50" height="50" as="geometry" />
        </mxCell>
        <mxCell id="MHvYwJk31liGYIqGSOy9-43" value="狀態" style="whiteSpace=wrap;html=1;aspect=fixed;fontSize=14;verticalAlign=middle;fontFamily=Comic Sans MS;fontColor=#000000;" parent="AflWwfmr-6gilCycjoMJ-1" vertex="1">
          <mxGeometry x="810" y="550" width="50" height="50" as="geometry" />
        </mxCell>
        <mxCell id="MHvYwJk31liGYIqGSOy9-45" value="State" style="text;html=1;strokeColor=none;fillColor=none;align=center;verticalAlign=middle;whiteSpace=wrap;rounded=0;fontSize=14;fontFamily=Comic Sans MS;fontColor=#000000;" parent="AflWwfmr-6gilCycjoMJ-1" vertex="1">
          <mxGeometry x="805" y="930" width="60" height="30" as="geometry" />
        </mxCell>
        <mxCell id="MHvYwJk31liGYIqGSOy9-52" value="Decorator" style="text;html=1;strokeColor=none;fillColor=none;align=center;verticalAlign=middle;whiteSpace=wrap;rounded=0;fontSize=14;fontFamily=Comic Sans MS;fontColor=#000000;" parent="AflWwfmr-6gilCycjoMJ-1" vertex="1">
          <mxGeometry x="1081" y="930" width="60" height="30" as="geometry" />
        </mxCell>
        <mxCell id="MHvYwJk31liGYIqGSOy9-54" value="State" style="text;html=1;strokeColor=none;fillColor=none;align=center;verticalAlign=middle;whiteSpace=wrap;rounded=0;fontSize=14;fontFamily=Comic Sans MS;fontColor=#000000;" parent="AflWwfmr-6gilCycjoMJ-1" vertex="1">
          <mxGeometry x="910" y="120" width="60" height="30" as="geometry" />
        </mxCell>
        <mxCell id="MHvYwJk31liGYIqGSOy9-56" value="Mediator" style="text;html=1;strokeColor=none;fillColor=none;align=center;verticalAlign=middle;whiteSpace=wrap;rounded=0;fontSize=14;fontFamily=Comic Sans MS;fontColor=#000000;" parent="AflWwfmr-6gilCycjoMJ-1" vertex="1">
          <mxGeometry x="1342.5" y="441" width="60" height="30" as="geometry" />
        </mxCell>
        <mxCell id="MHvYwJk31liGYIqGSOy9-58" value="Composite" style="text;html=1;strokeColor=none;fillColor=none;align=center;verticalAlign=middle;whiteSpace=wrap;rounded=0;fontSize=14;fontFamily=Comic Sans MS;fontColor=#000000;" parent="AflWwfmr-6gilCycjoMJ-1" vertex="1">
          <mxGeometry x="1605" y="440" width="60" height="30" as="geometry" />
        </mxCell>
        <mxCell id="MHvYwJk31liGYIqGSOy9-60" value="Builder" style="text;html=1;strokeColor=none;fillColor=none;align=center;verticalAlign=middle;whiteSpace=wrap;rounded=0;fontSize=14;fontFamily=Comic Sans MS;fontColor=#000000;" parent="AflWwfmr-6gilCycjoMJ-1" vertex="1">
          <mxGeometry x="1882.5" y="441" width="60" height="30" as="geometry" />
        </mxCell>
        <mxCell id="MHvYwJk31liGYIqGSOy9-63" value="Proxy" style="text;html=1;strokeColor=none;fillColor=none;align=center;verticalAlign=middle;whiteSpace=wrap;rounded=0;fontSize=14;fontFamily=Comic Sans MS;fontColor=#000000;" parent="AflWwfmr-6gilCycjoMJ-1" vertex="1">
          <mxGeometry x="2117.5" y="441" width="60" height="30" as="geometry" />
        </mxCell>
        <mxCell id="MHvYwJk31liGYIqGSOy9-51" value="" style="rounded=0;whiteSpace=wrap;html=1;fontSize=14;verticalAlign=middle;fontFamily=Comic Sans MS;fontColor=#000000;" parent="1" vertex="1">
          <mxGeometry x="1040" y="600" width="230" height="410" as="geometry" />
        </mxCell>
        <mxCell id="MHvYwJk31liGYIqGSOy9-47" value="行為" style="text;html=1;strokeColor=none;fillColor=none;align=center;verticalAlign=middle;whiteSpace=wrap;rounded=0;fontSize=14;fontFamily=Comic Sans MS;fontColor=#000000;" parent="1" vertex="1">
          <mxGeometry x="1125" y="610" width="60" height="30" as="geometry" />
        </mxCell>
        <mxCell id="MHvYwJk31liGYIqGSOy9-48" value="" style="rounded=0;whiteSpace=wrap;html=1;align=center;fontSize=14;verticalAlign=middle;fontFamily=Comic Sans MS;fontColor=#000000;" parent="1" vertex="1">
          <mxGeometry x="1079.5" y="640" width="151" height="348" as="geometry" />
        </mxCell>
        <mxCell id="MHvYwJk31liGYIqGSOy9-49" value="行為" style="rounded=0;whiteSpace=wrap;html=1;align=center;fontSize=14;verticalAlign=middle;fontFamily=Comic Sans MS;fontColor=#000000;" parent="1" vertex="1">
          <mxGeometry x="1125" y="692" width="60" height="278" as="geometry" />
        </mxCell>
        <mxCell id="MHvYwJk31liGYIqGSOy9-50" value="行為" style="text;html=1;strokeColor=none;fillColor=none;align=center;verticalAlign=middle;whiteSpace=wrap;rounded=0;fontSize=14;fontFamily=Comic Sans MS;fontColor=#000000;" parent="1" vertex="1">
          <mxGeometry x="1125" y="652" width="60" height="30" as="geometry" />
        </mxCell>
      </root>
    </mxGraphModel>
  </diagram>
</mxfile>
